<?xml version="1.0" encoding="utf-8"?>
<!-- Generator: Adobe Illustrator 25.4.1, SVG Export Plug-In . SVG Version: 6.00 Build 0)  -->
<svg version="1.1" id="Layer_1" xmlns="http://www.w3.org/2000/svg" xmlns:xlink="http://www.w3.org/1999/xlink" x="0px" y="0px"
	 width="731.6px" height="1069.4px" viewBox="0 0 731.6 1069.4" style="enable-background:new 0 0 731.6 1069.4;"
	 xml:space="preserve">
<style type="text/css">
	.st0{fill:none;stroke:#ED2024;stroke-miterlimit:10;}
</style>
<path class="st0" d="M377.4,349h192.2c1.7,0,3.1-1.4,3.1-3.1V40.3c0-1.7-1.4-3.1-3.1-3.1H377.4c-1.7,0-3.1,1.4-3.1,3.1v305.6
	C374.3,347.6,375.7,349,377.4,349z M549.3,52.2c4.6,0,8.4,3.7,8.4,8.4c0,4.6-3.7,8.4-8.4,8.4c-4.6,0-8.4-3.7-8.4-8.4
	C541,55.9,544.7,52.2,549.3,52.2z M549.3,317.2c4.6,0,8.4,3.7,8.4,8.4c0,4.6-3.7,8.4-8.4,8.4c-4.6,0-8.4-3.7-8.4-8.4
	C541,321,544.7,317.2,549.3,317.2z M535.6,119.4c2.3,0,4.3,1.9,4.3,4.3c0,2.3-1.9,4.3-4.3,4.3c-2.3,0-4.3-1.9-4.3-4.3
	C531.3,121.3,533.2,119.4,535.6,119.4z M475.6,103.4c5.5,0,9.9,4.4,9.9,9.9s-4.4,9.9-9.9,9.9c-5.5,0-9.9-4.4-9.9-9.9
	S470.1,103.4,475.6,103.4z M397.7,52.2c4.6,0,8.4,3.7,8.4,8.4c0,4.6-3.7,8.4-8.4,8.4c-4.6,0-8.4-3.7-8.4-8.4
	C389.3,55.9,393.1,52.2,397.7,52.2z M397.7,317.2c4.6,0,8.4,3.7,8.4,8.4c0,4.6-3.7,8.4-8.4,8.4c-4.6,0-8.4-3.7-8.4-8.4
	C389.3,321,393.1,317.2,397.7,317.2z"/>
<path class="st0" d="M342,708.5H149.8c-1.7,0-3.1,1.4-3.1,3.1v305.6c0,1.7,1.4,3.1,3.1,3.1H342c1.7,0,3.1-1.4,3.1-3.1V711.6
	C345.1,709.9,343.7,708.5,342,708.5z M170.1,1005.3c-4.6,0-8.4-3.7-8.4-8.4c0-4.6,3.7-8.4,8.4-8.4c4.6,0,8.4,3.7,8.4,8.4
	C178.4,1001.6,174.7,1005.3,170.1,1005.3z M170.1,740.3c-4.6,0-8.4-3.7-8.4-8.4c0-4.6,3.7-8.4,8.4-8.4c4.6,0,8.4,3.7,8.4,8.4
	C178.4,736.5,174.7,740.3,170.1,740.3z M321.7,1005.3c-4.6,0-8.4-3.7-8.4-8.4c0-4.6,3.7-8.4,8.4-8.4c4.6,0,8.4,3.7,8.4,8.4
	C330.1,1001.6,326.3,1005.3,321.7,1005.3z M321.7,740.3c-4.6,0-8.4-3.7-8.4-8.4c0-4.6,3.7-8.4,8.4-8.4c4.6,0,8.4,3.7,8.4,8.4
	C330.1,736.5,326.3,740.3,321.7,740.3z"/>
<path class="st0" d="M687.2,568.2V376c0-1.7-1.4-3.1-3.1-3.1H563.2c-6.3,0-11.3,5.1-11.3,11.3h89.5c3.4,0,6.2,2.8,6.2,6.2v163.4
	c0,3.4-2.8,6.2-6.2,6.2H421.3c-3.4,0-6.2-2.8-6.2-6.2V446.9c0-1.6-1.3-2.8-2.8-2.8s-2.8-1.3-2.8-2.8v-5.7c0-1.6,1.3-2.8,2.8-2.8
	s2.8-1.3,2.8-2.8v-39.5c0-3.4,2.8-6.2,6.2-6.2H515c0-6.3-5.1-11.3-11.3-11.3H378.5c-1.7,0-3.1,1.4-3.1,3.1v192.2
	c0,1.7,1.4,3.1,3.1,3.1h305.6C685.8,571.3,687.2,569.9,687.2,568.2z M655.5,396.2c0-4.6,3.7-8.4,8.4-8.4c4.6,0,8.4,3.7,8.4,8.4
	c0,4.6-3.7,8.4-8.4,8.4C659.2,404.6,655.5,400.9,655.5,396.2z M655.5,547.9c0-4.6,3.7-8.4,8.4-8.4c4.6,0,8.4,3.7,8.4,8.4
	c0,4.6-3.7,8.4-8.4,8.4C659.2,556.3,655.5,552.5,655.5,547.9z M390.4,396.2c0-4.6,3.7-8.4,8.4-8.4c4.6,0,8.4,3.7,8.4,8.4
	c0,4.6-3.7,8.4-8.4,8.4C394.2,404.6,390.4,400.9,390.4,396.2z M390.4,547.9c0-4.6,3.7-8.4,8.4-8.4c4.6,0,8.4,3.7,8.4,8.4
	c0,4.6-3.7,8.4-8.4,8.4C394.2,556.3,390.4,552.5,390.4,547.9z"/>
<path class="st0" d="M687.2,792.7V600.5c0-1.7-1.4-3.1-3.1-3.1H563.2c-6.3,0-11.3,5.1-11.3,11.3h89.5c3.4,0,6.2,2.8,6.2,6.2v163.4
	c0,3.4-2.8,6.2-6.2,6.2H421.3c-3.4,0-6.2-2.8-6.2-6.2V671.5c0-1.6-1.3-2.8-2.8-2.8s-2.8-1.3-2.8-2.8v-5.7c0-1.6,1.3-2.8,2.8-2.8
	s2.8-1.3,2.8-2.8v-39.5c0-3.4,2.8-6.2,6.2-6.2H515c0-6.3-5.1-11.3-11.3-11.3H378.5c-1.7,0-3.1,1.4-3.1,3.1v192.2
	c0,1.7,1.4,3.1,3.1,3.1h305.6C685.8,795.8,687.2,794.4,687.2,792.7z M655.5,620.8c0-4.6,3.7-8.4,8.4-8.4c4.6,0,8.4,3.7,8.4,8.4
	c0,4.6-3.7,8.4-8.4,8.4C659.2,629.1,655.5,625.4,655.5,620.8z M655.5,772.4c0-4.6,3.7-8.4,8.4-8.4c4.6,0,8.4,3.7,8.4,8.4
	c0,4.6-3.7,8.4-8.4,8.4C659.2,780.8,655.5,777,655.5,772.4z M390.4,620.8c0-4.6,3.7-8.4,8.4-8.4c4.6,0,8.4,3.7,8.4,8.4
	c0,4.6-3.7,8.4-8.4,8.4C394.2,629.1,390.4,625.4,390.4,620.8z M390.4,772.4c0-4.6,3.7-8.4,8.4-8.4c4.6,0,8.4,3.7,8.4,8.4
	c0,4.6-3.7,8.4-8.4,8.4C394.2,780.8,390.4,777,390.4,772.4z"/>
<path class="st0" d="M299.2,273c3.4,0,6.2,2.8,6.2,6.2v163.4c0,3.4-2.8,6.2-6.2,6.2H79.2c-3.4,0-6.2-2.8-6.2-6.2V335.8
	c0-1.6-1.3-2.8-2.8-2.8s-2.8-1.3-2.8-2.8v-5.7c0-1.6,1.3-2.8,2.8-2.8s2.8-1.3,2.8-2.8v-39.5c0-3.4,2.8-6.2,6.2-6.2H299.2z
	 M36.4,261.7c-1.7,0-3.1,1.4-3.1,3.1V457c0,1.7,1.4,3.1,3.1,3.1H342c1.7,0,3.1-1.4,3.1-3.1V264.8c0-1.7-1.4-3.1-3.1-3.1H36.4z
	 M313.3,285.1c0-4.6,3.7-8.4,8.4-8.4c4.6,0,8.4,3.7,8.4,8.4c0,4.6-3.7,8.4-8.4,8.4C317.1,293.5,313.3,289.7,313.3,285.1z
	 M313.3,436.7c0-4.6,3.7-8.4,8.4-8.4c4.6,0,8.4,3.7,8.4,8.4c0,4.6-3.7,8.4-8.4,8.4C317.1,445.1,313.3,441.4,313.3,436.7z
	 M48.3,285.1c0-4.6,3.7-8.4,8.4-8.4c4.6,0,8.4,3.7,8.4,8.4c0,4.6-3.7,8.4-8.4,8.4C52,293.5,48.3,289.7,48.3,285.1z M48.3,436.7
	c0-4.6,3.7-8.4,8.4-8.4c4.6,0,8.4,3.7,8.4,8.4c0,4.6-3.7,8.4-8.4,8.4C52,445.1,48.3,441.4,48.3,436.7z"/>
<path class="st0" d="M299.2,48.5c3.4,0,6.2,2.8,6.2,6.2v163.4c0,3.4-2.8,6.2-6.2,6.2H79.2c-3.4,0-6.2-2.8-6.2-6.2V111.3
	c0-1.6-1.3-2.8-2.8-2.8s-2.8-1.3-2.8-2.8v-5.7c0-1.6,1.3-2.8,2.8-2.8s2.8-1.3,2.8-2.8V54.7c0-3.4,2.8-6.2,6.2-6.2H299.2z M36.4,37.2
	c-1.7,0-3.1,1.4-3.1,3.1v192.2c0,1.7,1.4,3.1,3.1,3.1H342c1.7,0,3.1-1.4,3.1-3.1V40.3c0-1.7-1.4-3.1-3.1-3.1H36.4z M313.3,60.6
	c0-4.6,3.7-8.4,8.4-8.4c4.6,0,8.4,3.7,8.4,8.4c0,4.6-3.7,8.4-8.4,8.4C317.1,68.9,313.3,65.2,313.3,60.6z M313.3,212.2
	c0-4.6,3.7-8.4,8.4-8.4c4.6,0,8.4,3.7,8.4,8.4c0,4.6-3.7,8.4-8.4,8.4C317.1,220.6,313.3,216.8,313.3,212.2z M48.3,60.6
	c0-4.6,3.7-8.4,8.4-8.4c4.6,0,8.4,3.7,8.4,8.4c0,4.6-3.7,8.4-8.4,8.4C52,68.9,48.3,65.2,48.3,60.6z M48.3,212.2
	c0-4.6,3.7-8.4,8.4-8.4c4.6,0,8.4,3.7,8.4,8.4c0,4.6-3.7,8.4-8.4,8.4C52,220.6,48.3,216.8,48.3,212.2z"/>
<path class="st0" d="M687.2,1017.2V825c0-1.7-1.4-3.1-3.1-3.1H563.2c-6.3,0-11.3,5.1-11.3,11.3h89.5c3.4,0,6.2,2.8,6.2,6.2v163.4
	c0,3.4-2.8,6.2-6.2,6.2H421.3c-3.4,0-6.2-2.8-6.2-6.2V896c0-1.6-1.3-2.8-2.8-2.8s-2.8-1.3-2.8-2.8v-5.7c0-1.6,1.3-2.8,2.8-2.8
	s2.8-1.3,2.8-2.8v-39.5c0-3.4,2.8-6.2,6.2-6.2H515c0-6.3-5.1-11.3-11.3-11.3H378.5c-1.7,0-3.1,1.4-3.1,3.1v192.2
	c0,1.7,1.4,3.1,3.1,3.1h305.6C685.8,1020.3,687.2,1018.9,687.2,1017.2z M655.5,845.3c0-4.6,3.7-8.4,8.4-8.4c4.6,0,8.4,3.7,8.4,8.4
	c0,4.6-3.7,8.4-8.4,8.4C659.2,853.7,655.5,849.9,655.5,845.3z M655.5,996.9c0-4.6,3.7-8.4,8.4-8.4c4.6,0,8.4,3.7,8.4,8.4
	c0,4.6-3.7,8.4-8.4,8.4C659.2,1005.3,655.5,1001.6,655.5,996.9z M390.4,845.3c0-4.6,3.7-8.4,8.4-8.4c4.6,0,8.4,3.7,8.4,8.4
	c0,4.6-3.7,8.4-8.4,8.4C394.2,853.7,390.4,849.9,390.4,845.3z M390.4,996.9c0-4.6,3.7-8.4,8.4-8.4c4.6,0,8.4,3.7,8.4,8.4
	c0,4.6-3.7,8.4-8.4,8.4C394.2,1005.3,390.4,1001.6,390.4,996.9z"/>
<path class="st0" d="M299.2,497.6c3.4,0,6.2,2.8,6.2,6.2v163.4c0,3.4-2.8,6.2-6.2,6.2H79.2c-3.4,0-6.2-2.8-6.2-6.2V560.3
	c0-1.6-1.3-2.8-2.8-2.8s-2.8-1.3-2.8-2.8V549c0-1.6,1.3-2.8,2.8-2.8s2.8-1.3,2.8-2.8v-39.5c0-3.4,2.8-6.2,6.2-6.2H299.2z
	 M36.4,486.2c-1.7,0-3.1,1.4-3.1,3.1v192.2c0,1.7,1.4,3.1,3.1,3.1H342c1.7,0,3.1-1.4,3.1-3.1V489.4c0-1.7-1.4-3.1-3.1-3.1H36.4z
	 M313.3,509.6c0-4.6,3.7-8.4,8.4-8.4c4.6,0,8.4,3.7,8.4,8.4c0,4.6-3.7,8.4-8.4,8.4C317.1,518,313.3,514.2,313.3,509.6z M313.3,661.3
	c0-4.6,3.7-8.4,8.4-8.4c4.6,0,8.4,3.7,8.4,8.4c0,4.6-3.7,8.4-8.4,8.4C317.1,669.6,313.3,665.9,313.3,661.3z M48.3,509.6
	c0-4.6,3.7-8.4,8.4-8.4c4.6,0,8.4,3.7,8.4,8.4c0,4.6-3.7,8.4-8.4,8.4C52,518,48.3,514.2,48.3,509.6z M48.3,661.3
	c0-4.6,3.7-8.4,8.4-8.4c4.6,0,8.4,3.7,8.4,8.4c0,4.6-3.7,8.4-8.4,8.4C52,669.6,48.3,665.9,48.3,661.3z"/>
</svg>
